# xmcd
#
# Track frame offsets:
#	182
#	10460
#	24862
#	38012
#	48247
#	60015
#	70582
#	80400
#	94972
#	107115
#	119460
#
# Disc length: 1784 seconds
#
# Revision: 2
# Processed by: cddbd v1.5.2PL0 Copyright (c) Steve Scherf et al.
# Submitted via: EZCDAudioConverter 6.0.2.1
#
DISCID=7d06f60b
DTITLE=The Statler Brothers - Entertainers...On and Off The Record
DYEAR=1978
DGENRE=Country
TTITLE0=Do You Know You Are My Sunshine?
TTITLE1=Yours Love
TTITLE2=The Best That I Can Do
TTITLE3=You're The First
TTITLE4=Tomorrow Is Your Friend
TTITLE5=The Official Historian On Shirley Jean Berrell
TTITLE6=Who Am I To Say
TTITLE7=I Forgot More Than You'll Ever Know
TTITLE8=When You Are Sixty-Five
TTITLE9=I Dreamed About You
TTITLE10=Before The Magic Turns To Memory
EXTD=
EXTT0=
EXTT1=
EXTT2=
EXTT3=
EXTT4=
EXTT5=
EXTT6=
EXTT7=
EXTT8=
EXTT9=
EXTT10=
PLAYORDER=
